<svg xmlns="http://www.w3.org/2000/svg" width="920" height="520">
<rect width="100%" height="100%" fill="#fcfbf7"/>
<text x="70" y="34" font-size="24">Distribution of shots needed to finish the game</text>
<line x1="70" y1="440.0" x2="850" y2="440.0" stroke="#ddd"/>
<line x1="70" y1="376.0" x2="850" y2="376.0" stroke="#ddd"/>
<line x1="70" y1="312.0" x2="850" y2="312.0" stroke="#ddd"/>
<line x1="70" y1="248.0" x2="850" y2="248.0" stroke="#ddd"/>
<line x1="70" y1="184.0" x2="850" y2="184.0" stroke="#ddd"/>
<line x1="70" y1="120.0" x2="850" y2="120.0" stroke="#ddd"/>
<rect x="70.0" y="413.3333333333333" width="9.928571428571429" height="26.666666666666668" fill="#d15b47" opacity="0.85"/>
<rect x="125.71428571428572" y="400.0" width="9.928571428571429" height="40.0" fill="#d15b47" opacity="0.85"/>
<rect x="181.42857142857144" y="346.6666666666667" width="9.928571428571429" height="93.33333333333333" fill="#d15b47" opacity="0.85"/>
<rect x="237.14285714285714" y="320.0" width="9.928571428571429" height="120.0" fill="#d15b47" opacity="0.85"/>
<rect x="292.8571428571429" y="200.0" width="9.928571428571429" height="240.0" fill="#d15b47" opacity="0.85"/>
<rect x="348.57142857142856" y="160.0" width="9.928571428571429" height="280.0" fill="#d15b47" opacity="0.85"/>
<rect x="404.2857142857143" y="266.66666666666663" width="9.928571428571429" height="173.33333333333334" fill="#d15b47" opacity="0.85"/>
<rect x="460.0" y="373.3333333333333" width="9.928571428571429" height="66.66666666666667" fill="#d15b47" opacity="0.85"/>
<rect x="515.7142857142858" y="426.6666666666667" width="9.928571428571429" height="13.333333333333334" fill="#d15b47" opacity="0.85"/>
<rect x="571.4285714285714" y="440.0" width="9.928571428571429" height="0.0" fill="#d15b47" opacity="0.85"/>
<rect x="627.1428571428571" y="426.6666666666667" width="9.928571428571429" height="13.333333333333334" fill="#d15b47" opacity="0.85"/>
<rect x="682.8571428571429" y="440.0" width="9.928571428571429" height="0.0" fill="#d15b47" opacity="0.85"/>
<rect x="738.5714285714286" y="440.0" width="9.928571428571429" height="0.0" fill="#d15b47" opacity="0.85"/>
<rect x="794.2857142857143" y="440.0" width="9.928571428571429" height="0.0" fill="#d15b47" opacity="0.85"/>
<rect x="83.92857142857143" y="440.0" width="9.928571428571429" height="0.0" fill="#4b83c3" opacity="0.85"/>
<rect x="139.64285714285714" y="426.6666666666667" width="9.928571428571429" height="13.333333333333334" fill="#4b83c3" opacity="0.85"/>
<rect x="195.35714285714286" y="400.0" width="9.928571428571429" height="40.0" fill="#4b83c3" opacity="0.85"/>
<rect x="251.07142857142856" y="320.0" width="9.928571428571429" height="120.0" fill="#4b83c3" opacity="0.85"/>
<rect x="306.78571428571433" y="120.0" width="9.928571428571429" height="320.0" fill="#4b83c3" opacity="0.85"/>
<rect x="362.5" y="306.66666666666663" width="9.928571428571429" height="133.33333333333334" fill="#4b83c3" opacity="0.85"/>
<rect x="418.2142857142857" y="240.0" width="9.928571428571429" height="200.0" fill="#4b83c3" opacity="0.85"/>
<rect x="473.92857142857144" y="293.33333333333337" width="9.928571428571429" height="146.66666666666666" fill="#4b83c3" opacity="0.85"/>
<rect x="529.6428571428572" y="346.6666666666667" width="9.928571428571429" height="93.33333333333333" fill="#4b83c3" opacity="0.85"/>
<rect x="585.3571428571429" y="440.0" width="9.928571428571429" height="0.0" fill="#4b83c3" opacity="0.85"/>
<rect x="641.0714285714286" y="440.0" width="9.928571428571429" height="0.0" fill="#4b83c3" opacity="0.85"/>
<rect x="696.7857142857143" y="440.0" width="9.928571428571429" height="0.0" fill="#4b83c3" opacity="0.85"/>
<rect x="752.5" y="440.0" width="9.928571428571429" height="0.0" fill="#4b83c3" opacity="0.85"/>
<rect x="808.2142857142858" y="440.0" width="9.928571428571429" height="0.0" fill="#4b83c3" opacity="0.85"/>
<rect x="97.85714285714286" y="440.0" width="9.928571428571429" height="0.0" fill="#6d9f4b" opacity="0.85"/>
<rect x="153.57142857142858" y="440.0" width="9.928571428571429" height="0.0" fill="#6d9f4b" opacity="0.85"/>
<rect x="209.2857142857143" y="440.0" width="9.928571428571429" height="0.0" fill="#6d9f4b" opacity="0.85"/>
<rect x="265.0" y="440.0" width="9.928571428571429" height="0.0" fill="#6d9f4b" opacity="0.85"/>
<rect x="320.7142857142857" y="426.6666666666667" width="9.928571428571429" height="13.333333333333334" fill="#6d9f4b" opacity="0.85"/>
<rect x="376.4285714285714" y="426.6666666666667" width="9.928571428571429" height="13.333333333333334" fill="#6d9f4b" opacity="0.85"/>
<rect x="432.1428571428571" y="386.6666666666667" width="9.928571428571429" height="53.333333333333336" fill="#6d9f4b" opacity="0.85"/>
<rect x="487.85714285714283" y="373.3333333333333" width="9.928571428571429" height="66.66666666666667" fill="#6d9f4b" opacity="0.85"/>
<rect x="543.5714285714287" y="333.3333333333333" width="9.928571428571429" height="106.66666666666667" fill="#6d9f4b" opacity="0.85"/>
<rect x="599.2857142857143" y="200.0" width="9.928571428571429" height="240.0" fill="#6d9f4b" opacity="0.85"/>
<rect x="655.0" y="226.66666666666666" width="9.928571428571429" height="213.33333333333334" fill="#6d9f4b" opacity="0.85"/>
<rect x="710.7142857142858" y="200.0" width="9.928571428571429" height="240.0" fill="#6d9f4b" opacity="0.85"/>
<rect x="766.4285714285714" y="333.3333333333333" width="9.928571428571429" height="106.66666666666667" fill="#6d9f4b" opacity="0.85"/>
<rect x="822.1428571428572" y="426.6666666666667" width="9.928571428571429" height="13.333333333333334" fill="#6d9f4b" opacity="0.85"/>
<text x="74.0" y="460" font-size="11">36-39</text>
<text x="129.71428571428572" y="460" font-size="11">40-43</text>
<text x="185.42857142857144" y="460" font-size="11">44-47</text>
<text x="241.14285714285714" y="460" font-size="11">48-51</text>
<text x="296.8571428571429" y="460" font-size="11">52-55</text>
<text x="352.57142857142856" y="460" font-size="11">56-59</text>
<text x="408.2857142857143" y="460" font-size="11">60-63</text>
<text x="464.0" y="460" font-size="11">64-67</text>
<text x="519.7142857142858" y="460" font-size="11">68-71</text>
<text x="575.4285714285714" y="460" font-size="11">72-75</text>
<text x="631.1428571428571" y="460" font-size="11">76-79</text>
<text x="686.8571428571429" y="460" font-size="11">80-83</text>
<text x="742.5714285714286" y="460" font-size="11">84-87</text>
<text x="798.2857142857143" y="460" font-size="11">88-91</text>
<rect x="70" y="468" width="18" height="18" fill="#d15b47"/>
<text x="98" y="482" font-size="14">Bayes</text>
<rect x="250" y="468" width="18" height="18" fill="#4b83c3"/>
<text x="278" y="482" font-size="14">Hunt-target</text>
<rect x="430" y="468" width="18" height="18" fill="#6d9f4b"/>
<text x="458" y="482" font-size="14">Random</text>
</svg>