<svg xmlns="http://www.w3.org/2000/svg" width="920" height="520">
<rect width="100%" height="100%" fill="#fcfbf7"/>
<text x="70" y="34" font-size="24">Distribution of shots needed to finish the game</text>
<line x1="70" y1="440.0" x2="850" y2="440.0" stroke="#ddd"/>
<line x1="70" y1="376.0" x2="850" y2="376.0" stroke="#ddd"/>
<line x1="70" y1="312.0" x2="850" y2="312.0" stroke="#ddd"/>
<line x1="70" y1="248.0" x2="850" y2="248.0" stroke="#ddd"/>
<line x1="70" y1="184.0" x2="850" y2="184.0" stroke="#ddd"/>
<line x1="70" y1="120.0" x2="850" y2="120.0" stroke="#ddd"/>
<rect x="70.0" y="410.90909090909093" width="14.571428571428573" height="29.09090909090909" fill="#d15b47" opacity="0.85"/>
<rect x="125.71428571428572" y="396.3636363636364" width="14.571428571428573" height="43.63636363636363" fill="#d15b47" opacity="0.85"/>
<rect x="181.42857142857144" y="338.1818181818182" width="14.571428571428573" height="101.81818181818181" fill="#d15b47" opacity="0.85"/>
<rect x="237.14285714285714" y="309.0909090909091" width="14.571428571428573" height="130.9090909090909" fill="#d15b47" opacity="0.85"/>
<rect x="292.8571428571429" y="178.1818181818182" width="14.571428571428573" height="261.8181818181818" fill="#d15b47" opacity="0.85"/>
<rect x="348.57142857142856" y="134.54545454545456" width="14.571428571428573" height="305.45454545454544" fill="#d15b47" opacity="0.85"/>
<rect x="404.2857142857143" y="250.9090909090909" width="14.571428571428573" height="189.0909090909091" fill="#d15b47" opacity="0.85"/>
<rect x="460.0" y="367.27272727272725" width="14.571428571428573" height="72.72727272727273" fill="#d15b47" opacity="0.85"/>
<rect x="515.7142857142858" y="425.45454545454544" width="14.571428571428573" height="14.545454545454545" fill="#d15b47" opacity="0.85"/>
<rect x="571.4285714285714" y="440.0" width="14.571428571428573" height="0.0" fill="#d15b47" opacity="0.85"/>
<rect x="627.1428571428571" y="425.45454545454544" width="14.571428571428573" height="14.545454545454545" fill="#d15b47" opacity="0.85"/>
<rect x="682.8571428571429" y="440.0" width="14.571428571428573" height="0.0" fill="#d15b47" opacity="0.85"/>
<rect x="738.5714285714286" y="440.0" width="14.571428571428573" height="0.0" fill="#d15b47" opacity="0.85"/>
<rect x="794.2857142857143" y="440.0" width="14.571428571428573" height="0.0" fill="#d15b47" opacity="0.85"/>
<rect x="88.57142857142857" y="440.0" width="14.571428571428573" height="0.0" fill="#4b83c3" opacity="0.85"/>
<rect x="144.2857142857143" y="440.0" width="14.571428571428573" height="0.0" fill="#4b83c3" opacity="0.85"/>
<rect x="200.00000000000003" y="440.0" width="14.571428571428573" height="0.0" fill="#4b83c3" opacity="0.85"/>
<rect x="255.71428571428572" y="440.0" width="14.571428571428573" height="0.0" fill="#4b83c3" opacity="0.85"/>
<rect x="311.42857142857144" y="440.0" width="14.571428571428573" height="0.0" fill="#4b83c3" opacity="0.85"/>
<rect x="367.1428571428571" y="425.45454545454544" width="14.571428571428573" height="14.545454545454545" fill="#4b83c3" opacity="0.85"/>
<rect x="422.85714285714283" y="381.8181818181818" width="14.571428571428573" height="58.18181818181818" fill="#4b83c3" opacity="0.85"/>
<rect x="478.57142857142856" y="352.72727272727275" width="14.571428571428573" height="87.27272727272727" fill="#4b83c3" opacity="0.85"/>
<rect x="534.2857142857143" y="280.0" width="14.571428571428573" height="160.0" fill="#4b83c3" opacity="0.85"/>
<rect x="590.0" y="149.09090909090907" width="14.571428571428573" height="290.90909090909093" fill="#4b83c3" opacity="0.85"/>
<rect x="645.7142857142857" y="120.0" width="14.571428571428573" height="320.0" fill="#4b83c3" opacity="0.85"/>
<rect x="701.4285714285714" y="294.5454545454545" width="14.571428571428573" height="145.45454545454547" fill="#4b83c3" opacity="0.85"/>
<rect x="757.1428571428571" y="381.8181818181818" width="14.571428571428573" height="58.18181818181818" fill="#4b83c3" opacity="0.85"/>
<rect x="812.8571428571429" y="410.90909090909093" width="14.571428571428573" height="29.09090909090909" fill="#4b83c3" opacity="0.85"/>
<text x="74.0" y="460" font-size="11">36-39</text>
<text x="129.71428571428572" y="460" font-size="11">40-43</text>
<text x="185.42857142857144" y="460" font-size="11">44-47</text>
<text x="241.14285714285714" y="460" font-size="11">48-51</text>
<text x="296.8571428571429" y="460" font-size="11">52-55</text>
<text x="352.57142857142856" y="460" font-size="11">56-59</text>
<text x="408.2857142857143" y="460" font-size="11">60-63</text>
<text x="464.0" y="460" font-size="11">64-67</text>
<text x="519.7142857142858" y="460" font-size="11">68-71</text>
<text x="575.4285714285714" y="460" font-size="11">72-75</text>
<text x="631.1428571428571" y="460" font-size="11">76-79</text>
<text x="686.8571428571429" y="460" font-size="11">80-83</text>
<text x="742.5714285714286" y="460" font-size="11">84-87</text>
<text x="798.2857142857143" y="460" font-size="11">88-91</text>
<rect x="70" y="468" width="18" height="18" fill="#d15b47"/>
<text x="98" y="482" font-size="14">Bayes</text>
<rect x="250" y="468" width="18" height="18" fill="#4b83c3"/>
<text x="278" y="482" font-size="14">Random</text>
</svg>